<?xml version="1.0" encoding="UTF-8" standalone="no"?>
<svg
   xmlns:dc="http://purl.org/dc/elements/1.1/"
   xmlns:cc="http://creativecommons.org/ns#"
   xmlns:rdf="http://www.w3.org/1999/02/22-rdf-syntax-ns#"
   xmlns:svg="http://www.w3.org/2000/svg"
   xmlns="http://www.w3.org/2000/svg"
   xmlns:sodipodi="http://sodipodi.sourceforge.net/DTD/sodipodi-0.dtd"
   xmlns:inkscape="http://www.inkscape.org/namespaces/inkscape"
   version="1.1"
   id="svg2"
   xml:space="preserve"
   width="171.836"
   height="41.013077"
   viewBox="0 0 171.836 41.013076"
   sodipodi:docname="20190701_discoverysemester_positiv.svg"
   inkscape:version="1.0.2 (e86c870879, 2021-01-15)"
   inkscape:export-filename="/home/simon/bitmap.png"
   inkscape:export-xdpi="837.97144"
   inkscape:export-ydpi="837.97144"><metadata
     id="metadata8"><rdf:RDF><cc:Work
         rdf:about=""><dc:format>image/svg+xml</dc:format><dc:type
           rdf:resource="http://purl.org/dc/dcmitype/StillImage" /><dc:title /></cc:Work></rdf:RDF></metadata><defs
     id="defs6" /><sodipodi:namedview
     pagecolor="#ffffff"
     bordercolor="#666666"
     borderopacity="1"
     objecttolerance="10"
     gridtolerance="10"
     guidetolerance="10"
     inkscape:pageopacity="0"
     inkscape:pageshadow="2"
     inkscape:window-width="1920"
     inkscape:window-height="1051"
     id="namedview4"
     showgrid="false"
     inkscape:zoom="10.143393"
     inkscape:cx="35.993976"
     inkscape:cy="20.309366"
     inkscape:window-x="1920"
     inkscape:window-y="0"
     inkscape:window-maximized="1"
     inkscape:current-layer="g12"
     inkscape:document-rotation="0" /><g
     id="g10"
     inkscape:groupmode="layer"
     inkscape:label="ink_ext_XXXXXX"
     transform="matrix(1.3333333,0,0,-1.3333333,0,41.013599)"><g
       id="g12"
       transform="scale(0.1)"><path
         d="m 365.508,240.922 c 0,5.691 -0.758,10.867 -2.27,15.535 -1.519,4.66 -3.726,8.684 -6.633,12.082 -2.91,3.387 -6.484,5.996 -10.718,7.813 -4.242,1.816 -9.028,2.722 -14.356,2.722 h -18.347 v -76.672 h 18.347 c 5.449,0 10.293,0.969 14.539,2.914 4.239,1.93 7.778,4.629 10.625,8.075 2.844,3.457 5.024,7.511 6.543,12.179 1.512,4.657 2.27,9.774 2.27,15.352 z m -82.121,-64.68 v 128.996 h 48.144 c 10.66,0 19.989,-1.699 27.981,-5.09 7.992,-3.398 14.683,-7.996 20.078,-13.808 5.387,-5.809 9.441,-12.625 12.168,-20.438 2.73,-7.812 4.09,-16.144 4.09,-24.98 0,-9.817 -1.52,-18.684 -4.543,-26.621 -3.028,-7.934 -7.36,-14.707 -12.989,-20.344 -5.632,-5.637 -12.418,-9.988 -20.347,-13.086 -7.934,-3.086 -16.75,-4.629 -26.438,-4.629 h -48.144"
         style="fill:#000000;fill-opacity:1;fill-rule:nonzero;stroke:none"
         id="path14"
         inkscape:connector-curvature="0" /><path
         d="m 413.539,176.242 v 128.996 h 29.797 V 176.242 h -29.797"
         style="fill:#000000;fill-opacity:1;fill-rule:nonzero;stroke:none"
         id="path16"
         inkscape:connector-curvature="0" /><path
         d="m 550.527,267.445 c -0.488,0.489 -1.816,1.395 -4,2.723 -2.175,1.328 -4.902,2.727 -8.172,4.18 -3.273,1.457 -6.847,2.726 -10.718,3.82 -3.883,1.082 -7.754,1.629 -11.633,1.629 -5.086,0 -8.988,-0.906 -11.719,-2.723 -2.722,-1.816 -4.086,-4.484 -4.086,-7.988 0,-2.188 0.606,-4.004 1.817,-5.461 1.211,-1.445 2.933,-2.754 5.179,-3.906 2.239,-1.153 5.028,-2.207 8.356,-3.172 3.332,-0.977 7.179,-2.063 11.539,-3.274 6.176,-1.699 11.746,-3.543 16.715,-5.535 4.965,-2.004 9.203,-4.484 12.718,-7.453 3.512,-2.969 6.2,-6.57 8.082,-10.808 1.879,-4.239 2.817,-9.329 2.817,-15.266 0,-7.266 -1.363,-13.418 -4.086,-18.438 -2.727,-5.031 -6.336,-9.082 -10.813,-12.175 -4.48,-3.086 -9.656,-5.325 -15.531,-6.719 -5.879,-1.391 -11.898,-2.094 -18.078,-2.094 -4.726,0 -9.539,0.363 -14.441,1.098 -4.907,0.722 -9.723,1.785 -14.446,3.172 -4.726,1.394 -9.328,3.054 -13.808,5 -4.481,1.933 -8.602,4.179 -12.352,6.718 l 13.082,25.989 c 0.606,-0.617 2.235,-1.758 4.903,-3.457 2.664,-1.7 5.929,-3.391 9.808,-5.09 3.875,-1.699 8.238,-3.211 13.082,-4.539 4.844,-1.328 9.75,-1.992 14.715,-1.992 10.535,0 15.805,3.203 15.805,9.629 0,2.41 -0.785,4.414 -2.356,5.984 -1.578,1.574 -3.761,3 -6.543,4.277 -2.789,1.27 -6.062,2.453 -9.812,3.535 -3.754,1.094 -7.875,2.305 -12.352,3.633 -5.937,1.828 -11.086,3.789 -15.445,5.91 -4.359,2.118 -7.992,4.571 -10.899,7.364 -2.91,2.781 -5.058,5.984 -6.449,9.629 -1.398,3.632 -2.09,7.871 -2.09,12.714 0,6.778 1.27,12.774 3.813,17.989 2.543,5.203 5.996,9.59 10.355,13.164 4.364,3.574 9.422,6.269 15.172,8.086 5.754,1.816 11.836,2.722 18.258,2.722 4.606,0 9.086,-0.418 13.445,-1.269 4.364,-0.848 8.508,-1.934 12.442,-3.27 3.937,-1.328 7.664,-2.843 11.179,-4.543 3.508,-1.699 6.661,-3.386 9.442,-5.086 l -12.895,-24.707"
         style="fill:#000000;fill-opacity:1;fill-rule:nonzero;stroke:none"
         id="path18"
         inkscape:connector-curvature="0" /><path
         d="m 577.23,241.828 c 0,7.754 1.387,15.469 4.176,23.164 2.789,7.688 6.84,14.563 12.172,20.617 5.332,6.055 11.84,10.965 19.531,14.715 7.692,3.762 16.442,5.637 26.254,5.637 11.504,0 21.492,-2.609 29.977,-7.813 8.476,-5.207 14.777,-11.992 18.887,-20.343 l -22.891,-15.996 c -1.328,3.39 -3.027,6.211 -5.086,8.449 -2.062,2.246 -4.293,4.062 -6.715,5.457 -2.426,1.387 -4.937,2.355 -7.539,2.902 -2.609,0.547 -5.058,0.821 -7.359,0.821 -5.332,0 -9.934,-1.153 -13.809,-3.458 -3.879,-2.296 -7.086,-5.265 -9.629,-8.898 -2.543,-3.633 -4.453,-7.754 -5.722,-12.352 -1.274,-4.609 -1.911,-9.269 -1.911,-13.996 0,-5.086 0.758,-9.988 2.274,-14.714 1.512,-4.719 3.637,-8.899 6.359,-12.532 2.727,-3.633 6.024,-6.511 9.899,-8.633 3.879,-2.121 8.179,-3.171 12.898,-3.171 2.426,0 4.938,0.332 7.539,0.996 2.606,0.664 5.121,1.687 7.539,3.086 2.426,1.394 4.602,3.211 6.543,5.449 1.938,2.246 3.508,5 4.719,8.269 l 24.531,-14.355 c -1.941,-4.727 -4.754,-8.965 -8.445,-12.715 -3.703,-3.762 -7.902,-6.902 -12.629,-9.453 -4.727,-2.539 -9.719,-4.481 -14.984,-5.813 -5.27,-1.328 -10.45,-2 -15.539,-2 -8.965,0 -17.168,1.915 -24.614,5.723 -7.453,3.82 -13.871,8.875 -19.258,15.176 -5.39,6.301 -9.597,13.437 -12.625,21.437 -3.035,7.996 -4.543,16.102 -4.543,24.344"
         style="fill:#000000;fill-opacity:1;fill-rule:nonzero;stroke:none"
         id="path20"
         inkscape:connector-curvature="0" /><path
         d="m 726.383,240.559 c 0,-4.969 0.691,-9.786 2.09,-14.442 1.386,-4.668 3.386,-8.82 5.996,-12.453 2.597,-3.633 5.867,-6.531 9.804,-8.723 3.934,-2.175 8.457,-3.257 13.536,-3.257 5.214,0 9.754,1.14 13.632,3.445 3.875,2.297 7.11,5.293 9.715,8.996 2.61,3.691 4.543,7.871 5.813,12.539 1.277,4.656 1.914,9.414 1.914,14.258 0,4.961 -0.703,9.773 -2.09,14.441 -1.398,4.66 -3.43,8.782 -6.086,12.356 -2.664,3.574 -5.937,6.414 -9.812,8.535 -3.879,2.117 -8.301,3.184 -13.262,3.184 -5.215,0 -9.758,-1.125 -13.625,-3.36 -3.887,-2.246 -7.117,-5.176 -9.727,-8.82 -2.605,-3.633 -4.57,-7.781 -5.898,-12.442 -1.336,-4.656 -2,-9.414 -2,-14.257 z m 31.062,-65.411 c -9.199,0 -17.558,1.883 -25.066,5.633 -7.512,3.75 -13.969,8.696 -19.348,14.809 -5.39,6.109 -9.57,13.113 -12.539,20.984 -2.969,7.871 -4.453,15.989 -4.453,24.348 0,8.476 1.543,16.648 4.641,24.519 3.086,7.883 7.383,14.817 12.89,20.813 5.516,5.996 12.047,10.769 19.629,14.344 7.567,3.574 15.828,5.363 24.793,5.363 9.199,0 17.559,-1.875 25.071,-5.637 7.507,-3.75 13.964,-8.719 19.355,-14.89 5.379,-6.184 9.531,-13.204 12.441,-21.075 2.911,-7.882 4.364,-15.871 4.364,-23.984 0,-8.477 -1.551,-16.652 -4.637,-24.523 -3.086,-7.879 -7.356,-14.817 -12.805,-20.813 -5.457,-5.984 -11.961,-10.801 -19.531,-14.441 -7.578,-3.633 -15.84,-5.45 -24.805,-5.45"
         style="fill:#000000;fill-opacity:1;fill-rule:nonzero;stroke:none"
         id="path22"
         inkscape:connector-curvature="0" /><path
         d="m 850.102,305.238 30.527,-91.574 29.973,91.574 h 31.433 L 892.984,176.242 H 868.09 l -49.414,128.996 h 31.426"
         style="fill:#000000;fill-opacity:1;fill-rule:nonzero;stroke:none"
         id="path24"
         inkscape:connector-curvature="0" /><path
         d="m 1044.5,202.402 v -26.16 h -90.656 v 128.996 h 89.026 v -26.164 h -59.233 v -25.078 h 50.873 v -24.16 h -50.873 v -27.434 h 60.863"
         style="fill:#000000;fill-opacity:1;fill-rule:nonzero;stroke:none"
         id="path26"
         inkscape:connector-curvature="0" /><path
         d="m 1094.02,243.832 h 27.25 c 3.51,0 6.55,1.66 9.09,4.988 2.54,3.332 3.81,7.598 3.81,12.813 0,5.324 -1.45,9.562 -4.36,12.715 -2.9,3.144 -6.06,4.726 -9.44,4.726 h -26.35 z m -29.8,-67.59 v 128.996 h 58.15 c 6.05,0 11.65,-1.281 16.79,-3.82 5.15,-2.539 9.6,-5.879 13.36,-9.988 3.75,-4.121 6.69,-8.789 8.81,-13.996 2.12,-5.204 3.19,-10.477 3.19,-15.801 0,-4.004 -0.49,-7.84 -1.46,-11.543 -0.98,-3.692 -2.36,-7.168 -4.18,-10.438 -1.82,-3.273 -4.03,-6.211 -6.63,-8.82 -2.61,-2.598 -5.55,-4.812 -8.81,-6.629 l 29.61,-47.961 h -33.61 l -25.98,41.602 h -19.44 v -41.602 h -29.8"
         style="fill:#000000;fill-opacity:1;fill-rule:nonzero;stroke:none"
         id="path28"
         inkscape:connector-curvature="0" /><path
         d="m 1200.3,305.238 27.8,-59.23 28.34,59.23 h 32.33 l -45.78,-85.031 v -43.965 h -29.79 v 44.328 l -45.24,84.668 h 32.34"
         style="fill:#000000;fill-opacity:1;fill-rule:nonzero;stroke:none"
         id="path30"
         inkscape:connector-curvature="0" /><path
         d="m 360.965,93.5273 c -0.488,0.4883 -1.817,1.3985 -3.996,2.7266 -2.18,1.3242 -4.903,2.7227 -8.176,4.1801 -3.27,1.453 -6.844,2.722 -10.719,3.816 -3.879,1.086 -7.754,1.633 -11.629,1.633 -5.09,0 -8.992,-0.91 -11.718,-2.727 -2.727,-1.816 -4.086,-4.4802 -4.086,-7.988 0,-2.1875 0.601,-4.0039 1.812,-5.4571 1.215,-1.4453 2.938,-2.7578 5.184,-3.9062 2.234,-1.1563 5.023,-2.207 8.355,-3.1758 3.328,-0.9766 7.176,-2.0625 11.535,-3.2734 6.176,-1.6992 11.75,-3.543 16.715,-5.5352 4.965,-2.0039 9.203,-4.4805 12.719,-7.4531 3.512,-2.9688 6.203,-6.5703 8.082,-10.8086 1.879,-4.2383 2.816,-9.3281 2.816,-15.2617 0,-7.2696 -1.363,-13.418 -4.086,-18.4414 -2.722,-5.0274 -6.332,-9.0821 -10.808,-12.17581 -4.485,-3.08594 -9.66,-5.32422 -15.535,-6.71875 -5.879,-1.38672 -11.899,-2.089846 -18.075,-2.089846 -4.726,0 -9.542,0.359376 -14.445,1.093746 -4.906,0.72266 -9.719,1.78907 -14.441,3.17579 -4.727,1.39453 -9.332,3.05468 -13.809,4.99997 -4.484,1.9297 -8.605,4.1758 -12.355,6.7149 l 13.082,25.9883 c 0.605,-0.6133 2.234,-1.7579 4.902,-3.4571 2.664,-1.6992 5.934,-3.3906 9.809,-5.0859 3.879,-1.6992 8.238,-3.2149 13.082,-4.543 4.843,-1.3281 9.75,-1.9922 14.718,-1.9922 10.536,0 15.805,3.2032 15.805,9.6289 0,2.4141 -0.785,4.4141 -2.359,5.9883 -1.578,1.5703 -3.758,2.9961 -6.543,4.2735 -2.789,1.2734 -6.059,2.4531 -9.809,3.5351 -3.754,1.0938 -7.875,2.3047 -12.355,3.6328 -5.938,1.8281 -11.082,3.7891 -15.442,5.9102 -4.363,2.1211 -7.996,4.5703 -10.898,7.3633 -2.91,2.7851 -5.059,5.9882 -6.453,9.6289 -1.395,3.6328 -2.09,7.8711 -2.09,12.7148 0,6.7774 1.269,12.7736 3.816,17.9886 2.543,5.207 5.996,9.59 10.356,13.164 4.359,3.574 9.418,6.269 15.172,8.086 5.75,1.816 11.836,2.722 18.254,2.722 4.605,0 9.089,-0.418 13.449,-1.265 4.359,-0.852 8.504,-1.938 12.441,-3.274 3.934,-1.328 7.66,-2.84 11.176,-4.543 3.512,-1.699 6.66,-3.386 9.445,-5.086 L 360.965,93.5273"
         style="fill:#000000;fill-opacity:1;fill-rule:nonzero;stroke:none"
         id="path32"
         inkscape:connector-curvature="0" /><path
         d="M 486.375,28.4883 V 2.32422 H 395.719 V 131.32 h 89.023 v -26.164 h -59.23 V 80.0781 h 50.871 V 55.9219 H 425.512 V 28.4883 h 60.863"
         style="fill:#000000;fill-opacity:1;fill-rule:nonzero;stroke:none"
         id="path34"
         inkscape:connector-curvature="0" /><path
         d="M 607.84,2.32422 V 79.543 L 579.863,23.3984 H 563.875 L 535.898,79.543 V 2.32422 H 506.102 V 131.32 h 32.339 l 33.426,-67.402 33.617,67.402 h 32.153 V 2.32422 H 607.84"
         style="fill:#000000;fill-opacity:1;fill-rule:nonzero;stroke:none"
         id="path36"
         inkscape:connector-curvature="0" /><path
         d="M 753.168,28.4883 V 2.32422 H 662.504 V 131.32 h 89.023 V 105.156 H 692.301 V 80.0781 h 50.867 V 55.9219 H 692.301 V 28.4883 h 60.867"
         style="fill:#000000;fill-opacity:1;fill-rule:nonzero;stroke:none"
         id="path38"
         inkscape:connector-curvature="0" /><path
         d="m 849.438,93.5273 c -0.489,0.4883 -1.817,1.3985 -4.004,2.7266 -2.176,1.3242 -4.903,2.7227 -8.172,4.1801 -3.274,1.453 -6.848,2.722 -10.715,3.816 -3.887,1.086 -7.754,1.633 -11.629,1.633 -5.09,0 -8.996,-0.91 -11.719,-2.727 -2.726,-1.816 -4.094,-4.4802 -4.094,-7.988 0,-2.1875 0.606,-4.0039 1.817,-5.4571 1.211,-1.4453 2.941,-2.7578 5.187,-3.9062 2.235,-1.1563 5.02,-2.207 8.348,-3.1758 3.328,-0.9766 7.18,-2.0625 11.543,-3.2734 6.172,-1.6992 11.75,-3.543 16.711,-5.5352 4.969,-2.0039 9.207,-4.4805 12.723,-7.4531 3.507,-2.9688 6.203,-6.5703 8.078,-10.8086 1.883,-4.2383 2.82,-9.3281 2.82,-15.2617 0,-7.2696 -1.367,-13.418 -4.09,-18.4414 C 859.516,16.8281 855.91,12.7734 851.43,9.67969 846.949,6.59375 841.773,4.35547 835.902,2.96094 830.023,1.57422 824,0.871094 817.824,0.871094 c -4.722,0 -9.539,0.359376 -14.441,1.093746 -4.91,0.72266 -9.727,1.78907 -14.442,3.17579 -4.726,1.39453 -9.336,3.05468 -13.808,4.99997 -4.485,1.9297 -8.606,4.1758 -12.356,6.7149 l 13.078,25.9883 c 0.606,-0.6133 2.235,-1.7579 4.903,-3.4571 2.664,-1.6992 5.937,-3.3906 9.812,-5.0859 3.879,-1.6992 8.235,-3.2149 13.078,-4.543 4.844,-1.3281 9.754,-1.9922 14.715,-1.9922 10.539,0 15.813,3.2032 15.813,9.6289 0,2.4141 -0.793,4.4141 -2.363,5.9883 -1.575,1.5703 -3.762,2.9961 -6.543,4.2735 -2.786,1.2734 -6.055,2.4531 -9.805,3.5351 -3.762,1.0938 -7.883,2.3047 -12.356,3.6328 -5.937,1.8281 -11.082,3.7891 -15.449,5.9102 -4.355,2.1211 -7.988,4.5703 -10.898,7.3633 -2.91,2.7851 -5.059,5.9882 -6.446,9.6289 -1.394,3.6328 -2.089,7.8711 -2.089,12.7148 0,6.7774 1.269,12.7736 3.808,17.9886 2.551,5.207 5.996,9.59 10.363,13.164 4.356,3.574 9.415,6.269 15.165,8.086 5.753,1.816 11.835,2.722 18.261,2.722 4.602,0 9.082,-0.418 13.449,-1.265 4.356,-0.852 8.504,-1.938 12.442,-3.274 3.933,-1.328 7.652,-2.84 11.172,-4.543 3.515,-1.699 6.66,-3.386 9.441,-5.086 l -12.89,-24.7067"
         style="fill:#000000;fill-opacity:1;fill-rule:nonzero;stroke:none"
         id="path40"
         inkscape:connector-curvature="0" /><path
         d="M 978.781,105.156 H 939.547 V 2.32422 H 909.75 V 105.156 h -39.426 v 26.164 h 108.457 v -26.164"
         style="fill:#000000;fill-opacity:1;fill-rule:nonzero;stroke:none"
         id="path42"
         inkscape:connector-curvature="0" /><path
         d="M 1081.55,28.4883 V 2.32422 H 990.883 V 131.32 h 89.027 v -26.164 h -59.23 V 80.0781 h 50.87 V 55.9219 h -50.87 V 28.4883 h 60.87"
         style="fill:#000000;fill-opacity:1;fill-rule:nonzero;stroke:none"
         id="path44"
         inkscape:connector-curvature="0" /><path
         d="m 1131.07,69.9141 h 27.24 c 3.52,0 6.55,1.6601 9.1,4.9882 2.54,3.3321 3.81,7.6016 3.81,12.8165 0,5.3203 -1.46,9.5585 -4.36,12.7152 -2.91,3.14 -6.06,4.722 -9.45,4.722 h -26.34 z M 1101.27,2.32422 V 131.32 h 58.14 c 6.05,0 11.66,-1.277 16.81,-3.816 5.14,-2.539 9.59,-5.883 13.34,-9.992 3.76,-4.121 6.69,-8.789 8.82,-13.992 2.11,-5.2075 3.18,-10.4809 3.18,-15.8012 0,-4.004 -0.49,-7.8438 -1.46,-11.543 -0.96,-3.6953 -2.36,-7.168 -4.18,-10.4414 -1.81,-3.2696 -4.02,-6.211 -6.63,-8.8164 -2.61,-2.6016 -5.54,-4.8164 -8.81,-6.6328 l 29.61,-47.96098 h -33.6 L 1150.5,43.9297 h -19.43 V 2.32422 h -29.8"
         style="fill:#000000;fill-opacity:1;fill-rule:nonzero;stroke:none"
         id="path46"
         inkscape:connector-curvature="0" /><path
         d="M 30.9727,87.1992 31.332,30.3828 h 34.1758 v 43.8008 c 0,9.5898 7.3438,17.3633 16.4024,17.3633 9.0625,0 16.4062,-7.7735 16.4062,-17.3633 V 30.3828 h 27.6096 v 87.4802 c 0,9.59 7.344,17.364 16.406,17.364 9.059,0 16.402,-7.774 16.402,-17.364 V 30.3828 h 31.348 V 219.168 L 30.9727,87.1992"
         style="fill:#ffffff;fill-opacity:1;fill-rule:nonzero;stroke:none"
         id="path50"
         inkscape:connector-curvature="0" /><rect
         style="fill:none;fill-opacity:0.24038463;stroke-width:7.5"
         id="rect1410"
         width="1078.5223"
         height="207.74585"
         x="52.547642"
         y="-251.67555"
         transform="scale(1,-1)" /><path
         style="fill:#0076aa;fill-opacity:1;stroke-width:0.739397"
         d="M 0.502913,153.8622 V 307.6569 H 112.15195 223.80099 V 153.8622 0.067499 H 112.15195 0.502913 Z M 66.3093,53.403188 c 0,15.331913 0.2866,23.976975 0.85811,25.884525 1.10118,3.675405 5.16333,8.415046 8.80405,10.272398 5.72082,2.918543 13.79224,1.215795 18.02304,-3.802125 4.04061,-4.792365 4.10889,-5.312873 4.10889,-31.321013 V 30.3828 h 14.41826 14.41825 v 45.758221 45.758219 l 2.06541,3.95364 c 1.28934,2.46807 3.25806,4.79187 5.23948,6.18446 2.83109,1.98976 3.75953,2.23082 8.59216,2.23082 4.83264,0 5.76108,-0.24105 8.59216,-2.23082 1.98143,-1.39259 3.95015,-3.71639 5.23948,-6.18446 l 2.06541,-3.95364 V 76.141021 30.3828 h 16.26675 16.26675 v 94.7045 c 0,55.29064 -0.27488,94.60195 -0.66053,94.45805 C 189.80767,219.24708 31.667147,88.110091 31.283129,87.427074 31.134592,87.162849 31.181324,74.219836 31.386982,58.66476 L 31.760902,30.3828 H 49.03511 66.30932 Z"
         id="path41" /></g></g></svg>
