<?xml version="1.0" encoding="UTF-8" standalone="no"?>
<!-- Created with Inkscape (http://www.inkscape.org/) -->

<svg
   xmlns:dc="http://purl.org/dc/elements/1.1/"
   xmlns:cc="http://creativecommons.org/ns#"
   xmlns:rdf="http://www.w3.org/1999/02/22-rdf-syntax-ns#"
   xmlns:svg="http://www.w3.org/2000/svg"
   xmlns="http://www.w3.org/2000/svg"
   xmlns:sodipodi="http://sodipodi.sourceforge.net/DTD/sodipodi-0.dtd"
   xmlns:inkscape="http://www.inkscape.org/namespaces/inkscape"
   version="1.1"
   id="svg2"
   xml:space="preserve"
   width="172.21744"
   height="40.7864"
   viewBox="0 0 172.21744 40.7864"
   sodipodi:docname="20190701_discoverysemester_negativ.svg"
   inkscape:version="0.92.4 (5da689c313, 2019-01-14)"
   inkscape:export-filename="/home/simon/bitmap.png"
   inkscape:export-xdpi="835.57263"
   inkscape:export-ydpi="835.57263"><metadata
     id="metadata8"><rdf:RDF><cc:Work
         rdf:about=""><dc:format>image/svg+xml</dc:format><dc:type
           rdf:resource="http://purl.org/dc/dcmitype/StillImage" /><dc:title></dc:title></cc:Work></rdf:RDF></metadata><defs
     id="defs6" /><sodipodi:namedview
     pagecolor="#ffffff"
     bordercolor="#666666"
     borderopacity="1"
     objecttolerance="10"
     gridtolerance="10"
     guidetolerance="10"
     inkscape:pageopacity="0"
     inkscape:pageshadow="2"
     inkscape:window-width="1920"
     inkscape:window-height="1060"
     id="namedview4"
     showgrid="false"
     inkscape:zoom="8.2337771"
     inkscape:cx="86.108719"
     inkscape:cy="37.861085"
     inkscape:window-x="1366"
     inkscape:window-y="0"
     inkscape:window-maximized="1"
     inkscape:current-layer="g10"
     inkscape:pagecheckerboard="true" /><g
     id="g10"
     inkscape:groupmode="layer"
     inkscape:label="ink_ext_XXXXXX"
     transform="matrix(1.3333333,0,0,-1.3333333,0,41.333332)"><g
       id="g12"
       transform="scale(0.1)"><path
         d="m 367.191,244.18 c 0,5.699 -0.781,10.859 -2.312,15.55 -1.481,4.649 -3.707,8.668 -6.598,12.071 -2.929,3.398 -6.48,5.969 -10.742,7.808 -4.219,1.801 -9.019,2.731 -14.34,2.731 H 314.84 v -76.68 h 18.359 c 5.43,0 10.281,0.981 14.531,2.891 4.258,1.961 7.782,4.648 10.629,8.09 2.852,3.48 5.039,7.5 6.52,12.187 1.531,4.652 2.312,9.762 2.312,15.352 z M 285.039,179.488 V 308.48 h 48.16 c 10.672,0 20,-1.679 27.973,-5.082 8.008,-3.398 14.687,-8.007 20.078,-13.789 5.391,-5.82 9.449,-12.66 12.191,-20.468 2.688,-7.813 4.059,-16.129 4.059,-24.961 0,-9.801 -1.52,-18.668 -4.531,-26.641 -3.047,-7.93 -7.348,-14.687 -13.008,-20.309 -5.621,-5.671 -12.383,-10 -20.313,-13.089 -7.968,-3.09 -16.757,-4.653 -26.449,-4.653 h -48.16"
         style="fill:#ffffff;fill-opacity:1;fill-rule:nonzero;stroke:none"
         id="path14"
         inkscape:connector-curvature="0" /><path
         d="m 415.199,179.5 h 29.8008 V 308.48 H 415.199 Z"
         style="fill:#ffffff;fill-opacity:1;fill-rule:nonzero;stroke:none"
         id="path16"
         inkscape:connector-curvature="0" /><path
         d="m 552.191,270.699 c -0.472,0.473 -1.8,1.41 -3.992,2.742 -2.179,1.329 -4.918,2.688 -8.16,4.18 -3.277,1.438 -6.879,2.688 -10.738,3.789 -3.871,1.09 -7.742,1.641 -11.641,1.641 -5.082,0 -8.988,-0.903 -11.719,-2.742 -2.703,-1.789 -4.062,-4.45 -4.062,-7.969 0,-2.18 0.582,-4.02 1.793,-5.461 1.207,-1.449 2.93,-2.738 5.199,-3.91 2.219,-1.129 5.039,-2.188 8.359,-3.168 3.321,-0.973 7.18,-2.071 11.52,-3.281 6.172,-1.68 11.762,-3.551 16.719,-5.54 4.961,-2 9.222,-4.46 12.73,-7.429 3.481,-2.961 6.18,-6.602 8.09,-10.821 1.871,-4.25 2.813,-9.332 2.813,-15.269 0,-7.262 -1.372,-13.402 -4.102,-18.441 -2.73,-5.04 -6.328,-9.059 -10.82,-12.18 -4.489,-3.09 -9.649,-5.32 -15.508,-6.719 -5.902,-1.371 -11.91,-2.07 -18.082,-2.07 -4.731,0 -9.539,0.347 -14.461,1.09 -4.918,0.699 -9.719,1.8 -14.449,3.16 -4.731,1.41 -9.34,3.051 -13.789,5 -4.493,1.961 -8.59,4.179 -12.34,6.719 L 478.59,220 c 0.629,-0.59 2.269,-1.762 4.93,-3.441 2.652,-1.719 5.929,-3.399 9.8,-5.079 3.871,-1.71 8.239,-3.242 13.09,-4.57 4.84,-1.32 9.762,-1.988 14.719,-1.988 10.512,0 15.781,3.199 15.781,9.648 0,2.418 -0.781,4.41 -2.34,5.981 -1.558,1.558 -3.75,3 -6.558,4.289 -2.782,1.25 -6.063,2.43 -9.813,3.519 -3.75,1.09 -7.847,2.301 -12.34,3.629 -5.937,1.84 -11.089,3.793 -15.429,5.903 -4.379,2.148 -8.008,4.57 -10.899,7.379 -2.929,2.781 -5.082,5.98 -6.441,9.609 -1.41,3.641 -2.11,7.891 -2.11,12.742 0,6.758 1.29,12.77 3.821,17.969 2.539,5.23 5.98,9.609 10.359,13.16 4.371,3.59 9.41,6.289 15.149,8.09 5.742,1.832 11.839,2.73 18.281,2.73 4.609,0 9.07,-0.429 13.441,-1.25 4.379,-0.859 8.52,-1.949 12.418,-3.281 3.949,-1.328 7.699,-2.848 11.211,-4.527 3.481,-1.723 6.641,-3.403 9.418,-5.121 l -12.887,-24.692"
         style="fill:#ffffff;fill-opacity:1;fill-rule:nonzero;stroke:none"
         id="path18"
         inkscape:connector-curvature="0" /><path
         d="m 578.91,245.078 c 0,7.774 1.36,15.473 4.18,23.16 2.769,7.703 6.832,14.571 12.14,20.633 5.36,6.051 11.84,10.969 19.54,14.719 7.691,3.75 16.441,5.629 26.25,5.629 11.519,0 21.519,-2.617 30,-7.809 8.468,-5.199 14.761,-12 18.859,-20.359 l -22.891,-15.973 c -1.328,3.363 -3.008,6.211 -5.078,8.442 -2.07,2.218 -4.289,4.058 -6.711,5.46 -2.429,1.372 -4.929,2.348 -7.539,2.899 -2.621,0.543 -5.039,0.82 -7.351,0.82 -5.348,0 -9.957,-1.179 -13.829,-3.48 -3.859,-2.27 -7.07,-5.239 -9.601,-8.867 -2.539,-3.633 -4.457,-7.774 -5.75,-12.383 -1.25,-4.61 -1.91,-9.258 -1.91,-13.989 0,-5.07 0.781,-10 2.301,-14.718 1.492,-4.692 3.64,-8.871 6.332,-12.5 2.738,-3.641 6.058,-6.532 9.918,-8.641 3.871,-2.141 8.171,-3.199 12.89,-3.199 2.43,0 4.93,0.348 7.539,1.019 2.621,0.661 5.121,1.68 7.539,3.079 2.422,1.41 4.614,3.21 6.532,5.429 1.949,2.27 3.511,5 4.718,8.281 l 24.532,-14.332 c -1.911,-4.726 -4.758,-8.988 -8.43,-12.738 -3.711,-3.75 -7.891,-6.91 -12.621,-9.449 -4.731,-2.539 -9.731,-4.492 -15,-5.82 -5.27,-1.332 -10.43,-1.993 -15.547,-1.993 -8.942,0 -17.152,1.911 -24.613,5.743 -7.457,3.789 -13.86,8.871 -19.258,15.16 -5.391,6.289 -9.571,13.429 -12.61,21.437 -3.05,8.012 -4.531,16.102 -4.531,24.34"
         style="fill:#ffffff;fill-opacity:1;fill-rule:nonzero;stroke:none"
         id="path20"
         inkscape:connector-curvature="0" /><path
         d="m 728.051,243.828 c 0,-5 0.699,-9.808 2.109,-14.449 1.36,-4.688 3.36,-8.828 5.969,-12.469 2.582,-3.629 5.859,-6.519 9.812,-8.711 3.938,-2.179 8.469,-3.277 13.547,-3.277 5.203,0 9.731,1.168 13.602,3.476 3.898,2.262 7.14,5.274 9.719,8.981 2.621,3.672 4.531,7.851 5.82,12.543 1.293,4.648 1.922,9.418 1.922,14.258 0,4.961 -0.711,9.769 -2.11,14.449 -1.371,4.652 -3.402,8.75 -6.062,12.351 -2.688,3.551 -5.93,6.399 -9.801,8.508 -3.906,2.153 -8.316,3.211 -13.277,3.211 -5.242,0 -9.77,-1.14 -13.641,-3.359 -3.859,-2.27 -7.109,-5.199 -9.719,-8.828 -2.582,-3.633 -4.57,-7.782 -5.902,-12.422 -1.328,-4.692 -1.988,-9.418 -1.988,-14.262 z m 31.051,-65.43 c -9.18,0 -17.543,1.872 -25.043,5.622 -7.539,3.75 -13.981,8.71 -19.368,14.808 -5.39,6.133 -9.57,13.121 -12.543,21.012 -2.968,7.859 -4.449,15.98 -4.449,24.34 0,8.48 1.563,16.64 4.641,24.531 3.09,7.848 7.39,14.809 12.89,20.777 5.508,6.024 12.04,10.782 19.61,14.383 7.582,3.551 15.859,5.348 24.808,5.348 9.223,0 17.582,-1.879 25.082,-5.629 7.5,-3.75 13.942,-8.75 19.329,-14.918 5.39,-6.172 9.531,-13.203 12.461,-21.051 2.929,-7.891 4.378,-15.859 4.378,-23.992 0,-8.469 -1.558,-16.641 -4.648,-24.527 -3.09,-7.891 -7.34,-14.801 -12.809,-20.821 -5.472,-5.98 -11.961,-10.781 -19.531,-14.41 -7.582,-3.641 -15.82,-5.473 -24.808,-5.473"
         style="fill:#ffffff;fill-opacity:1;fill-rule:nonzero;stroke:none"
         id="path22"
         inkscape:connector-curvature="0" /><path
         d="m 851.762,308.48 30.539,-91.57 29.969,91.57 h 31.441 L 894.648,179.488 H 869.77 L 820.352,308.48 h 31.41"
         style="fill:#ffffff;fill-opacity:1;fill-rule:nonzero;stroke:none"
         id="path24"
         inkscape:connector-curvature="0" /><path
         d="M 1046.17,205.66 V 179.488 H 955.512 V 308.48 h 89.018 v -26.14 h -59.221 v -25.07 h 50.861 v -24.18 h -50.861 v -27.43 h 60.861"
         style="fill:#ffffff;fill-opacity:1;fill-rule:nonzero;stroke:none"
         id="path26"
         inkscape:connector-curvature="0" /><path
         d="m 1095.66,247.07 h 27.27 c 3.52,0 6.56,1.68 9.1,5 2.54,3.321 3.83,7.621 3.83,12.809 0,5.32 -1.48,9.57 -4.38,12.742 -2.93,3.117 -6.05,4.719 -9.45,4.719 h -26.37 z M 1065.9,179.488 V 308.48 h 58.12 c 6.06,0 11.64,-1.25 16.8,-3.789 5.16,-2.543 9.61,-5.902 13.36,-10 3.75,-4.14 6.72,-8.793 8.83,-13.992 2.11,-5.23 3.16,-10.5 3.16,-15.82 0,-3.981 -0.47,-7.848 -1.44,-11.52 -0.98,-3.711 -2.39,-7.187 -4.18,-10.468 -1.84,-3.243 -4.03,-6.211 -6.64,-8.789 -2.58,-2.622 -5.55,-4.84 -8.79,-6.641 l 29.61,-47.973 h -33.64 l -25.97,41.602 h -19.46 v -41.602 h -29.76"
         style="fill:#ffffff;fill-opacity:1;fill-rule:nonzero;stroke:none"
         id="path28"
         inkscape:connector-curvature="0" /><path
         d="m 1201.95,308.48 27.82,-59.218 28.35,59.218 h 32.31 l -45.78,-85 v -43.992 h -29.81 v 44.34 l -45.19,84.652 h 32.3"
         style="fill:#ffffff;fill-opacity:1;fill-rule:nonzero;stroke:none"
         id="path30"
         inkscape:connector-curvature="0" /><path
         d="m 362.621,96.8008 c -0.473,0.4687 -1.801,1.3984 -3.992,2.6875 -2.18,1.3317 -4.918,2.7417 -8.16,4.2227 -3.278,1.449 -6.879,2.699 -10.739,3.789 -3.871,1.09 -7.742,1.641 -11.609,1.641 -5.109,0 -9.019,-0.903 -11.711,-2.731 -2.738,-1.801 -4.109,-4.461 -4.109,-7.9686 0,-2.1914 0.59,-4.0312 1.801,-5.4726 1.207,-1.4493 2.968,-2.7696 5.199,-3.9102 2.219,-1.168 5.039,-2.1797 8.359,-3.1602 3.32,-0.9765 7.18,-2.0703 11.52,-3.2773 6.172,-1.7227 11.761,-3.5625 16.718,-5.5508 4.961,-1.9922 9.223,-4.4922 12.731,-7.4609 3.519,-2.9688 6.211,-6.5586 8.09,-10.7813 1.871,-4.2578 2.812,-9.3398 2.812,-15.2773 0,-7.2617 -1.371,-13.4297 -4.101,-18.4297 -2.7,-5.043 -6.328,-9.1016 -10.782,-12.1914 -4.488,-3.08986 -9.687,-5.30861 -15.546,-6.71876 -5.903,-1.3711 -11.911,-2.07031 -18.082,-2.07031 -4.731,0 -9.54,0.34765 -14.461,1.08984 -4.879,0.71094 -9.719,1.75781 -14.411,3.16797 -4.726,1.40234 -9.339,3.05076 -13.828,4.99996 -4.492,1.9102 -8.59,4.1797 -12.34,6.7227 l 13.079,25.9687 c 0.589,-0.621 2.23,-1.75 4.89,-3.4296 2.653,-1.7188 5.93,-3.3985 9.801,-5.0821 3.91,-1.7187 8.238,-3.2383 13.09,-4.5664 4.84,-1.332 9.762,-1.9922 14.719,-1.9922 10.55,0 15.82,3.1993 15.82,9.6407 0,2.4296 -0.82,4.4179 -2.379,5.9804 -1.559,1.5586 -3.75,3.0078 -6.52,4.2578 -2.82,1.293 -6.058,2.461 -9.808,3.5508 -3.793,1.1016 -7.891,2.3125 -12.383,3.6406 -5.937,1.8321 -11.059,3.7891 -15.43,5.8907 -4.379,2.1093 -8.007,4.5703 -10.898,7.3906 -2.891,2.7695 -5.082,5.9687 -6.441,9.6094 -1.411,3.6289 -2.11,7.8906 -2.11,12.7304 0,6.7581 1.289,12.7691 3.82,17.9691 2.54,5.23 5.981,9.609 10.36,13.16 4.371,3.601 9.41,6.289 15.191,8.09 5.739,1.84 11.84,2.73 18.239,2.73 4.609,0 9.07,-0.43 13.441,-1.25 4.379,-0.859 8.519,-1.949 12.461,-3.281 3.906,-1.328 7.656,-2.848 11.168,-4.57 3.519,-1.68 6.64,-3.36 9.422,-5.079 L 362.621,96.8008"
         style="fill:#ffffff;fill-opacity:1;fill-rule:nonzero;stroke:none"
         id="path32"
         inkscape:connector-curvature="0" /><path
         d="M 488.051,31.7617 V 5.58984 H 397.379 V 134.57 H 486.41 V 108.398 H 427.191 V 83.3203 h 50.86 V 59.1797 h -50.86 v -27.418 h 60.86"
         style="fill:#ffffff;fill-opacity:1;fill-rule:nonzero;stroke:none"
         id="path34"
         inkscape:connector-curvature="0" /><path
         d="M 609.488,5.58984 V 82.8086 L 581.52,26.6406 h -15.969 l -27.973,56.168 V 5.58984 H 507.77 V 134.57 h 32.351 L 573.52,67.1914 607.148,134.57 h 32.153 V 5.58984 h -29.813"
         style="fill:#ffffff;fill-opacity:1;fill-rule:nonzero;stroke:none"
         id="path36"
         inkscape:connector-curvature="0" /><path
         d="M 754.84,31.7617 V 5.58984 H 664.18 V 134.57 h 89.019 V 108.398 H 693.98 V 83.3203 h 50.86 V 59.1797 h -50.86 v -27.418 h 60.86"
         style="fill:#ffffff;fill-opacity:1;fill-rule:nonzero;stroke:none"
         id="path38"
         inkscape:connector-curvature="0" /><path
         d="m 851.09,96.8008 c -0.469,0.4687 -1.789,1.3984 -3.981,2.6875 -2.187,1.3317 -4.918,2.7417 -8.16,4.2227 -3.289,1.449 -6.879,2.699 -10.75,3.789 -3.859,1.09 -7.73,1.641 -11.64,1.641 -5.079,0 -8.981,-0.903 -11.719,-2.731 -2.692,-1.801 -4.059,-4.461 -4.059,-7.9686 0,-2.1914 0.59,-4.0312 1.797,-5.4726 1.211,-1.4493 2.934,-2.7696 5.192,-3.9102 2.23,-1.168 5.039,-2.1797 8.359,-3.1602 3.32,-0.9765 7.191,-2.0703 11.531,-3.2773 6.168,-1.7227 11.75,-3.5625 16.719,-5.5508 4.961,-1.9922 9.211,-4.4922 12.73,-7.4609 3.481,-2.9688 6.211,-6.5586 8.09,-10.7813 1.871,-4.2578 2.813,-9.3398 2.813,-15.2773 0,-7.2617 -1.371,-13.4297 -4.102,-18.4297 -2.738,-5.043 -6.332,-9.1016 -10.82,-12.1914 -4.5,-3.08986 -9.649,-5.30861 -15.512,-6.71876 -5.898,-1.3711 -11.918,-2.07031 -18.09,-2.07031 -4.718,0 -9.527,0.34765 -14.449,1.08984 -4.879,0.71094 -9.73,1.75781 -14.449,3.16797 -4.692,1.40234 -9.301,3.05076 -13.789,4.99996 -4.5,1.9102 -8.602,4.1797 -12.352,6.7227 l 13.09,25.9687 c 0.582,-0.621 2.231,-1.75 4.883,-3.4296 2.656,-1.7188 5.937,-3.3985 9.808,-5.0821 3.86,-1.7187 8.239,-3.2383 13.079,-4.5664 4.851,-1.332 9.769,-1.9922 14.73,-1.9922 10.512,0 15.82,3.1993 15.82,9.6407 0,2.4296 -0.82,4.4179 -2.379,5.9804 -1.57,1.5586 -3.75,3.0078 -6.531,4.2578 -2.808,1.293 -6.051,2.461 -9.801,3.5508 -3.789,1.1016 -7.886,2.3125 -12.378,3.6406 -5.942,1.8321 -11.098,3.7891 -15.43,5.8907 -4.379,2.1093 -8.012,4.5703 -10.899,7.3906 -2.929,2.7695 -5.082,5.9687 -6.453,9.6094 -1.398,3.6289 -2.109,7.8906 -2.109,12.7304 0,6.7581 1.293,12.7691 3.832,17.9691 2.539,5.23 5.98,9.609 10.348,13.16 4.382,3.601 9.421,6.289 15.16,8.09 5.742,1.84 11.832,2.73 18.281,2.73 4.609,0 9.059,-0.43 13.441,-1.25 4.368,-0.859 8.508,-1.949 12.457,-3.281 3.903,-1.328 7.622,-2.848 11.172,-4.57 3.481,-1.68 6.641,-3.36 9.41,-5.079 L 851.09,96.8008"
         style="fill:#ffffff;fill-opacity:1;fill-rule:nonzero;stroke:none"
         id="path40"
         inkscape:connector-curvature="0" /><path
         d="M 980.43,108.398 H 941.211 V 5.58984 H 911.41 V 108.398 H 871.988 V 134.57 H 980.43 v -26.172"
         style="fill:#ffffff;fill-opacity:1;fill-rule:nonzero;stroke:none"
         id="path42"
         inkscape:connector-curvature="0" /><path
         d="M 1083.2,31.7617 V 5.58984 H 992.539 V 134.57 h 89.021 v -26.172 h -59.22 V 83.3203 h 50.86 V 59.1797 h -50.86 v -27.418 h 60.86"
         style="fill:#ffffff;fill-opacity:1;fill-rule:nonzero;stroke:none"
         id="path44"
         inkscape:connector-curvature="0" /><path
         d="m 1132.73,73.1602 h 27.23 c 3.56,0 6.56,1.6796 9.1,5 2.54,3.3203 3.83,7.5781 3.83,12.8203 0,5.3086 -1.44,9.5705 -4.37,12.7305 -2.9,3.129 -6.06,4.687 -9.46,4.687 h -26.33 z M 1102.93,5.58984 V 134.57 h 58.12 c 6.1,0 11.68,-1.289 16.84,-3.832 5.16,-2.539 9.57,-5.859 13.32,-9.957 3.79,-4.14 6.72,-8.793 8.83,-14.019 2.11,-5.203 3.16,-10.4729 3.16,-15.7815 0,-4.0313 -0.47,-7.8594 -1.44,-11.5313 -0.98,-3.7109 -2.35,-7.1797 -4.18,-10.4687 -1.8,-3.2813 -4.03,-6.211 -6.6,-8.8203 -2.62,-2.5821 -5.55,-4.8086 -8.83,-6.6094 l 29.61,-47.96096 h -33.6 l -25.97,41.60156 h -19.46 V 5.58984 h -29.8"
         style="fill:#ffffff;fill-opacity:1;fill-rule:nonzero;stroke:none"
         id="path46"
         inkscape:connector-curvature="0" /><path
         d="M 226.762,310 H 0 V 4.102 h 226.762 z m -9.961,-10 V 14.1016 H 9.96094 V 300 H 216.801"
         style="fill:#ffffff;fill-opacity:1;fill-rule:nonzero;stroke:none"
         id="path48"
         inkscape:connector-curvature="0" /><path
         d="m 38.3203,95.1602 0.3516,-52.8204 h 31.7578 v 40.711 c 0,8.8984 6.8398,16.1289 15.2305,16.1289 8.4414,0 15.2808,-7.2305 15.2808,-16.1289 v -40.711 h 25.661 v 81.2892 c 0,8.949 6.839,16.141 15.238,16.141 8.43,0 15.23,-7.192 15.23,-16.141 V 42.3398 h 29.141 V 217.809 L 38.3203,95.1602"
         style="fill:#ffffff;fill-opacity:1;fill-rule:nonzero;stroke:none"
         id="path50"
         inkscape:connector-curvature="0" /></g><rect
       style="fill:none;fill-opacity:1;stroke-width:0.75"
       id="rect1412"
       width="129.16309"
       height="29.884119"
       x="0"
       y="-31"
       transform="scale(1,-1)" /></g></svg>